<?xml version="1.0" encoding="utf-8" ?>
<svg xmlns="http://www.w3.org/2000/svg" xmlns:xlink="http://www.w3.org/1999/xlink" width="1024" height="1023">
	<path fill="#FEFEFE" transform="scale(2 2)" d="M407.739 288.235L407.909 289.35L408.263 289.46C411.831 286.837 416.185 284.083 420.834 284.804C435.186 287.03 430.561 305.572 409.724 309.353C409.543 305.825 410.805 292.438 407.739 290.202C407.688 289.542 407.719 288.896 407.739 288.235Z"/>
	<path fill="#FEFEFE" transform="scale(2 2)" d="M104.992 310.369C101.573 310.682 84.3177 302.311 82.8278 296.546C81.6446 291.969 83.3935 286.595 88.3912 285.525C94.2314 284.274 100.282 288.016 104.992 291.008C104.818 297.433 104.857 303.941 104.992 310.369Z"/>
	<path fill="#FEFEFE" transform="scale(2 2)" d="M104.992 311.809C106.554 319.959 106.031 326.975 108.705 335.761C100.801 335.993 84.77 337.233 83.2714 326.308C81.9519 316.688 91.064 312.473 99.4542 312.404C101.215 312.39 102.986 312.871 104.735 312.689L104.992 311.809Z"/>
	<path fill="#FEFEFE" transform="scale(2 2)" d="M402.576 335.761C404.037 331.547 405.768 327.405 406.874 323.074C407.678 319.926 408.111 312.643 409.724 310.369L409.934 310.708C433.411 313.33 434.036 332.266 420.252 335.335C416.529 336.164 406.501 336.078 402.576 335.761Z"/>
	<path fill="#E33913" transform="scale(2 2)" d="M97.5056 107.069C132.88 111.144 164.708 126.81 191.524 150.004C184.882 152.985 178.06 155.925 172.229 160.352C156.471 144.703 133.256 136.058 112.502 129.852C107.439 157.829 109.975 185.93 122.146 211.812C117.691 220.069 115.857 226.341 112.502 234.348C108.568 228.949 105.704 222.395 103.043 216.279C89.9489 186.179 85.1023 138.548 97.5056 107.069Z"/>
	<path fill="#E33913" transform="scale(2 2)" d="M320.621 150.004C343.933 129.498 365.344 116.991 396.35 109.62C402.53 108.15 408.893 107.679 415.051 106.286C425.258 145.541 424.33 177.964 409.563 216.839C407.12 223.271 404.651 229.911 401.145 235.853C399.17 231.984 391.419 215.622 390.12 211.812C399.96 189.68 407.382 153.849 399.64 129.852C377.579 133.064 356.027 145.006 340.112 160.352C334.145 156.214 327.2 153.031 320.621 150.004Z"/>
	<path fill="#FEFEFE" transform="scale(2 2)" d="M106.98 255.348C129.531 255.39 150.991 265.002 163.019 284.912C185.597 279.341 210.453 275.496 231.543 288.235C237.623 277.332 253.926 278.071 265.009 279.228C271.506 279.906 276.48 282.143 280.619 287.232C293.527 282.966 302.674 278.183 317.486 278.767C326.148 279.108 340.01 281.275 347.618 284.912C358.979 264.883 383.59 255.261 405.905 256.003C408.308 267.026 407.23 277.238 407.739 288.235C407.719 288.896 407.688 289.542 407.739 290.202C410.805 292.438 409.543 305.825 409.724 309.353L409.724 310.369C408.111 312.643 407.678 319.926 406.874 323.074C405.768 327.405 404.037 331.547 402.576 335.761L402.576 335.761C401.657 336.35 395.431 348.774 393.859 351.325C378.589 376.117 355.566 394.753 326.985 401.527C313.798 404.652 299.746 403.741 286.306 403.732L216.801 403.731C186.384 403.716 166.123 399.542 141.028 379.415C128.73 369.552 112.356 351.241 108.705 335.761C106.031 326.975 106.554 319.959 104.992 311.809L104.992 310.369C104.857 303.941 104.818 297.433 104.992 291.008C104.969 290.084 104.986 289.159 104.992 288.235C104.936 277.535 104.713 265.836 106.98 255.348Z"/>
	<path fill="#FEFEFE" transform="scale(2 2)" d="M104.992 288.235C105.006 289.104 104.869 290.308 105.287 291.081C111.271 295.049 116.706 299.253 122.146 303.932C127.806 309.686 140.189 321.889 139.924 330.295C139.708 337.172 129.072 335.786 124.544 335.779L108.705 335.761C106.031 326.975 106.554 319.959 104.992 311.809L104.992 310.369C104.857 303.941 104.818 297.433 104.992 291.008C104.969 290.084 104.986 289.159 104.992 288.235Z"/>
	<path fill="#FEFEFE" transform="scale(2 2)" d="M407.739 290.202C410.805 292.438 409.543 305.825 409.724 309.353L409.724 310.369C408.111 312.643 407.678 319.926 406.874 323.074C405.768 327.405 404.037 331.547 402.576 335.761L402.576 335.761C398.211 336.472 389.415 335.676 384.63 335.726C381.099 335.762 372.139 337.786 371.527 332.298C370.633 324.281 384.946 311.867 389.834 305.468L390.12 305.087C393.318 300.714 406.329 292.585 407.739 290.202Z"/>
	<path fill="#FDC901" transform="scale(2 2)" d="M255.892 327.294C263.219 326.944 265.224 336.338 274.195 336.029C283 335.725 283.822 329.319 289.538 327.783C298.903 325.267 300.934 343.996 280.236 348.175C271.504 349.939 263.199 347.465 255.892 342.606C246.915 349.48 235.371 351.149 225.117 345.596C217.969 341.724 208.226 329.722 220.247 327.594C225.466 326.67 228.817 335.765 237.678 336.184C248.645 336.702 247.881 328.816 255.892 327.294Z"/>
	<path fill="#843213" transform="scale(2 2)" d="M231.543 288.235C237.623 277.332 253.926 278.071 265.009 279.228C271.506 279.906 276.48 282.143 280.619 287.232C285.978 300.707 262.746 323.405 250.856 317.822C242.498 313.898 228.294 299.341 231.543 288.235Z"/>
	<path fill="#E33913" transform="scale(2 2)" d="M106.98 255.348C129.531 255.39 150.991 265.002 163.019 284.912C148.869 289.743 134.512 295.357 122.146 303.932C116.706 299.253 111.271 295.049 105.287 291.081C104.869 290.308 105.006 289.104 104.992 288.235C104.936 277.535 104.713 265.836 106.98 255.348Z"/>
	<path fill="#E33913" transform="scale(2 2)" d="M347.618 284.912C358.979 264.883 383.59 255.261 405.905 256.003C408.308 267.026 407.23 277.238 407.739 288.235C407.719 288.896 407.688 289.542 407.739 290.202C406.329 292.585 393.318 300.714 390.12 305.087C377.585 297.951 362.121 286.541 347.618 284.912Z"/>
	<path fill="#FDC901" transform="scale(2 2)" d="M340.112 160.352C356.027 145.006 377.579 133.064 399.64 129.852C407.382 153.849 399.96 189.68 390.12 211.812C391.419 215.622 399.17 231.984 401.145 235.853C402.919 242.62 404.912 249.048 405.905 256.003C383.59 255.261 358.979 264.883 347.618 284.912C340.01 281.275 326.148 279.108 317.486 278.767C302.674 278.183 293.527 282.966 280.619 287.232C276.48 282.143 271.506 279.906 265.009 279.228C253.926 278.071 237.623 277.332 231.543 288.235C210.453 275.496 185.597 279.341 163.019 284.912C150.991 265.002 129.531 255.39 106.98 255.348C108.059 249.01 109.574 239.994 112.502 234.348C115.857 226.341 117.691 220.069 122.146 211.812C109.975 185.93 107.439 157.829 112.502 129.852C133.256 136.058 156.471 144.703 172.229 160.352C178.06 155.925 184.882 152.985 191.524 150.004C192.933 149.683 194.263 149.134 195.608 148.616C204.154 143.542 223.627 140.869 233.485 139.762C248.623 138.63 264 138.408 279.126 139.762C287.557 140.683 309.399 144.243 316.764 148.616C318.041 149.118 319.315 149.583 320.621 150.004C327.2 153.031 334.145 156.214 340.112 160.352Z"/>
	<path fill="#843213" transform="scale(2 2)" d="M193.168 231.352C213.698 229.551 217.859 260.935 195.608 264.175C173.155 265.194 170.091 233.498 193.168 231.352Z"/>
	<path fill="#843213" transform="scale(2 2)" d="M316.764 230.109C340.231 230.138 341.212 262.59 318.101 264.993C295.175 265.478 293.773 231.768 316.764 230.109Z"/>
	<path fill="#E33913" transform="scale(2 2)" d="M279.126 139.762C287.557 140.683 309.399 144.243 316.764 148.616C316.553 156.107 317.678 171.215 316.004 177.614C312.352 191.574 293.831 195.707 283.976 185.125C281.74 182.724 281.015 179.634 279.126 177.448C278.643 174.111 279.108 170.123 279.112 166.71L279.126 139.762Z"/>
	<path fill="#E33913" transform="scale(2 2)" d="M195.608 148.616C204.154 143.542 223.627 140.869 233.485 139.762C233.354 152.127 234.306 166.561 233.485 178.652C231.936 180.571 230.775 182.742 229.115 184.598C221.975 192.58 209.387 192.825 201.582 185.658C192.535 177.35 196.234 160.187 195.624 148.874L195.608 148.616Z"/>
	<path fill="#E33913" transform="scale(2 2)" d="M233.485 139.762C248.623 138.63 264 138.408 279.126 139.762L279.112 166.71C279.108 170.123 278.643 174.111 279.126 177.448C279.351 186.365 279.155 194.015 272.654 200.883C258.05 216.31 233.555 205.672 233.477 184.697L233.485 178.652C234.306 166.561 233.354 152.127 233.485 139.762Z"/>
</svg>
